Coordinates
version=1
nRows=9
nColumns=24
inDegrees=yes

Units are S.I. units (second, meters, Newtons, ...)
Angles are in degrees.

endheader
time	pelvis_tilt	pelvis_list	pelvis_rotation	pelvis_tx	pelvis_ty	pelvis_tz	hip_flexion_r	hip_adduction_r	hip_rotation_r	knee_angle_r	ankle_angle_r	subtalar_angle_r	mtp_angle_r	hip_flexion_l	hip_adduction_l	hip_rotation_l	knee_angle_l	ankle_angle_l	subtalar_angle_l	mtp_angle_l	lumbar_extension	lumbar_bending	lumbar_rotation
      0.96300000	     -1.83182425	     -1.79828409	     -0.14717558	     -0.39258924	      0.99384159	      0.35030689	     11.23734123	      6.41884267	      0.30397235	    -18.16933344	      7.90443396	     -8.55454033	      2.38382064	     21.10348152	     -2.93111151	     -0.21225299	    -70.23663146	     -1.21259201	    -12.76984389	     -1.16916932	      1.87782440	      5.25233867	      3.27502475
      0.96716667	     -1.83183767	     -1.74988400	     -0.23200133	     -0.38808370	      0.99429619	      0.35055287	     10.78292251	      6.36525246	      0.28666093	    -17.84403011	      7.94661104	     -8.32093429	      2.35253866	     21.68283727	     -2.89606790	     -0.25878034	    -69.96402372	     -0.70108963	    -12.71578088	     -1.22219602	      1.79861507	      5.19241585	      3.40952092
      0.97133333	     -1.81583610	     -1.69758362	     -0.31092422	     -0.38358183	      0.99475100	      0.35079193	     10.31125220	      6.30499457	      0.26130927	    -17.51689654	      7.99010836	     -8.07647966	      2.32450987	     22.23305366	     -2.85587149	     -0.30134177	    -69.64704520	     -0.19881417	    -12.63077128	     -1.27344064	      1.69915377	      5.12183684	      3.54272020
      0.97550000	     -1.81056151	     -1.65635163	     -0.38999596	     -0.37907574	      0.99515799	      0.35102231	      9.85108202	      6.25531819	      0.23674594	    -17.18980934	      8.03636627	     -7.83056234	      2.30035062	     22.78460018	     -2.82809176	     -0.33966437	    -69.29456621	      0.28729598	    -12.52276043	     -1.32251573	      1.61596741	      5.06401321	      3.67333492
      0.97966667	     -1.80304809	     -1.60903749	     -0.47021614	     -0.37457871	      0.99553410	      0.35123814	      9.39521770	      6.19577511	      0.20533949	    -16.87575099	      8.08728812	     -7.57366119	      2.27945213	     23.32098708	     -2.79277268	     -0.38047714	    -68.90146315	      0.76228370	    -12.38996428	     -1.37017572	      1.52841386	      5.00449049	      3.80332916
      0.98383333	     -1.78917500	     -1.56085950	     -0.54364631	     -0.37006040	      0.99591176	      0.35143227	      8.92750379	      6.13135050	      0.15980898	    -16.55326135	      8.14440282	     -7.28795062	      2.25857580	     23.83269229	     -2.75151597	     -0.41074570	    -68.45849360	      1.20351619	    -12.22778933	     -1.42694617	      1.44235846	      4.94821611	      3.94382392
      0.98800000	     -1.78103735	     -1.52106353	     -0.62403987	     -0.36556450	      0.99623375	      0.35163641	      8.47420089	      6.07740081	      0.12389677	    -16.24473266	      8.19713195	     -7.01919284	      2.24379586	     24.34172057	     -2.72265101	     -0.44455936	    -67.98584968	      1.65290583	    -12.06142581	     -1.47667656	      1.35607434	      4.90081966	      4.06558229
      0.99216667	     -1.77966094	     -1.47393546	     -0.70924173	     -0.36107256	      0.99652006	      0.35182695	      8.03268162	      6.01370859	      0.09808026	    -15.94603887	      8.24872282	     -6.77420641	      2.23697471	     24.84135904	     -2.68383077	     -0.48073705	    -67.47057752	      2.09105516	    -11.89682380	     -1.51053810	      1.27618883	      4.84706952	      4.16828332
      0.99633333	     -1.77150271	     -1.43284891	     -0.78482925	     -0.35657490	      0.99679545	      0.35201080	      7.57694068	      5.95584668	      0.06984388	    -15.63308959	      8.30130705	     -6.50446019	      2.23479515	     25.32176968	     -2.64907037	     -0.50532508	    -66.91762211	      2.50029352	    -11.69214815	     -1.54078074	      1.18474277	      4.79193417	      4.28440465
